/* XPM */
static char * fegarch_xpm[] = {
"50 32 2 1",
" 	c None",
".	c #000000",
"                                                  ",
"                                                  ",
"                                                  ",
"                                                  ",
"                                                  ",
"                                                  ",
"                                                  ",
"                                                  ",
"                                                  ",
"                                                  ",
"                                                  ",
"                                                  ",
"   ......   ....     .    .....     ....  .    .  ",
"   .       .         ..   .    .   .      .    .  ",
"   .      .         . .   .    .  .       .    .  ",
"   .....  .         . ..  .   ..  .       ......  ",
"   .      .   ..   .   .  .....   .       .    .  ",
"   .      .    .   .....  .   .   .       .    .  ",
"   .      ..   .   .   .. .   ..   .      .    .  ",
"   ......  .....  .     . .    ..   ....  .    .  ",
"                                                  ",
"                                                  ",
"                                                  ",
"                                                  ",
"                                                  ",
"                                                  ",
"                                                  ",
"                                                  ",
"                                                  ",
"                                                  ",
"                                                  ",
"                                                  "};
