/* XPM */
static char * ffore_xpm[] = {
"32 32 6 1",
" 	c None",
".	c black",
"X	c white",
"o	c cyan",
"O	c blue",
"+	c red",
"                                ",
"                                ",
"                                ",
"                                ",
"                                ",
"  ............................  ",
"  .XXXXXXXXXXXXXXXoXXXXXXXXXX.  ",
"  .XXXXXXXXXXXXXXXoXXXXXXXXXX.  ",
"  .XXXXXXXXXXXXXXXoXXXXXXXXXX.  ",
"  .XXXXXXXXXXXXXXXoXXXXXXXXXX.  ",
"  .XXXXXXXXXXXXXXXoXXXXXXXXXX.  ",
"  .XXXXXXXXXXXXXOXoXXX+XXXXXX.  ",
"  .XXXXXXXXXXXXOOXoXXX++XXXXX.  ",
"  .XXXXXXXXXXXXOXOo++++++XXXX.  ",
"  .XXXXXXOXXXXXOXXo+++++++XXX.  ",
"  .XXOXXXOOOXXXOXXo++++++++XX.  ",
"  .XOXOXOXXXOXOXXXo++++++++XX.  ",
"  .OXXOXOXXXOXOXXXo+++++++XXX.  ",
"  .XXXOXOXXXOXOXXXo++++++XXXX.  ",
"  .XXXXOXXXXOXOXXXoXXX++XXXXX.  ",
"  .XXXXOXXXXXOXXXXoXXX+XXXXXX.  ",
"  .XXXXXXXXXXOXXXXoXXXXXXXXXX.  ",
"  .XXXXXXXXXXOXXXXoXXXXXXXXXX.  ",
"  .XXXXXXXXXXOXXXXoXXXXXXXXXX.  ",
"  .XXXXXXXXXXXXXXXoXXXXXXXXXX.  ",
"  .XXXXXXXXXXXXXXXoXXXXXXXXXX.  ",
"  ............................  ",
"                                ",
"                                ",
"                                ",
"                                ",
"                                "};
