/* XPM */
static char * fgarch_xpm[] = {
"44 32 2 1",
" 	c None",
".	c #000000",
"                                            ",
"                                            ",
"                                            ",
"                                            ",
"                                            ",
"                                            ",
"                                            ",
"                                            ",
"                                            ",
"                                            ",
"                                            ",
"                                            ",
"     ....     .    .....     ....  .    .   ",
"    .         ..   .    .   .      .    .   ",
"   .         . .   .    .  .       .    .   ",
"   .         . ..  .   ..  .       ......   ",
"   .   ..   .   .  .....   .       .    .   ",
"   .    .   .....  .   .   .       .    .   ",
"   ..   .   .   .. .   ..   .      .    .   ",
"    .....  .     . .    ..   ....  .    .   ",
"                                            ",
"                                            ",
"                                            ",
"                                            ",
"                                            ",
"                                            ",
"                                            ",
"                                            ",
"                                            ",
"                                            ",
"                                            ",
"                                            "};
