/* XPM */
static char * fintegrate_xpm[] = {
"32 32 3 1",
" 	c None",
".	c #000000",
"+	c #A09393",
"                                ",
"                                ",
"                                ",
"                                ",
"                                ",
"                 .....          ",
"                ......+         ",
"               .......+         ",
"               ...+ +.+         ",
"               ..+   ++         ",
"               ..+              ",
"               ..+              ",
"               ..+              ",
"               ..+              ",
"               ..+              ",
"               ..+              ",
"               ..+              ",
"               ..+              ",
"               ..+              ",
"               ..+              ",
"               ..+              ",
"               ..+              ",
"          +.   ..+              ",
"          +.. ...+              ",
"          +......+              ",
"          +.....+               ",
"           +++++                ",
"                                ",
"                                ",
"                                ",
"                                ",
"                                "};
