/* XPM */
static char * flogs_xpm[] = {
"32 32 5 1",
" 	c None",
".	c black",
"X	c white",
"o	c grey",
"O	c blue",
"                                ",
"                                ",
"                                ",
"                                ",
"                                ",
"  ............................  ",
"  .XXXoXXXXXXXXXXXXXXXXXXXXXX.  ",
"  .XXXoXXXXXXXXXXXXXXXXXXXXXX.  ",
"  .XXXoXXXXXXXXXXXXXXXXXXXXXX.  ",
"  .XXXoXXXXXXXXXXXXXXXXXXXXXX.  ",
"  .XXXoXXXXXXXXXXXXXXXXXXXXXX.  ",
"  .XXXoXXXXXXXXXXXXXXXXXXXXXX.  ",
"  .XXXoXXXXXXXXXXXXXXXXXXXOOO.  ",
"  .XXXoXXXXXXXXXXXOOOOOOOOXXX.  ",
"  .XXXoXXXXXXXOOOOXXXXXXXXXXX.  ",
"  .XXXoXXXXXOOXXXXXXXXXXXXXXX.  ",
"  .XXXoXXXXOXXXXXXXXXXXXXXXXX.  ",
"  .oooooooOoooooooooooooooooo.  ",
"  .XXXoXXXOXXX.XXXXXXXXXXXXXX.  ",
"  .XXXoXXOXXXX.XXXXXXXXXXXXXX.  ",
"  .XXXoXXOXXXX.XXX...X...XXXX.  ",
"  .XXXoXXOXXXX.XXX.X.X.X.XXXX.  ",
"  .XXXoXOXXXXX...X...X...XXXX.  ",
"  .XXXoXOXXXXXXXXXXXXXXX.XXXX.  ",
"  .XXXoXOXXXXXXXXXXXXX...XXXX.  ",
"  .XXXoXOXXXXXXXXXXXXXXXXXXXX.  ",
"  ............................  ",
"                                ",
"                                ",
"                                ",
"                                ",
"                                "};
