/* XPM */
static char * fmle_xpm[] = {
"32 32 68 1",
" 	c None",
".	c #F8F3AB",
"+	c #F7F2AA",
"@	c #000000",
"#	c #010101",
"$	c #D5D092",
"%	c #11110C",
"&	c #ABA775",
"*	c #54533A",
"=	c #706E4D",
"-	c #B0AC79",
";	c #C6C288",
">	c #F3EEA7",
",	c #F3EEA8",
"'	c #F3EFA8",
")	c #F4EFA8",
"!	c #28271C",
"~	c #27261B",
"{	c #4E4C35",
"]	c #191911",
"^	c #B4B17C",
"/	c #CBC78C",
"(	c #7A7754",
"_	c #C8C48A",
":	c #F6F1A9",
"<	c #15140E",
"[	c #646245",
"}	c #BAB680",
"|	c #CCC78C",
"1	c #C1BE85",
"2	c #100F0B",
"3	c #686648",
"4	c #ADA977",
"5	c #10100B",
"6	c #B7B37E",
"7	c #BEBA83",
"8	c #CCC88D",
"9	c #59573D",
"0	c #1F1F15",
"a	c #F6F1AA",
"b	c #525038",
"c	c #58563C",
"d	c #C1BD85",
"e	c #C9C58B",
"f	c #B7B47E",
"g	c #B8B57F",
"h	c #0F0F0A",
"i	c #C2BE86",
"j	c #C5C187",
"k	c #CEC98E",
"l	c #1B1A12",
"m	c #252419",
"n	c #C5C188",
"o	c #C7C389",
"p	c #CECA8E",
"q	c #6C6A4A",
"r	c #7C7955",
"s	c #CDC98D",
"t	c #DCD898",
"u	c #99966A",
"v	c #E3DF9D",
"w	c #CAC68B",
"x	c #353424",
"y	c #0E0D09",
"z	c #F3EDA8",
"A	c #C1B592",
"B	c #F0EAA7",
"C	c #A49485",
"                                ",
"                                ",
"                                ",
"               ......           ",
"              .........         ",
"                .........       ",
"                 .........      ",
"      ..          .........     ",
"      .           ..........    ",
"     ..           .....+....    ",
"    ....          ....++.....   ",
"   .@#$.   %@  @& ....@@@@@@*   ",
"   .@@=.   @@  @-.....@;>,,')   ",
"   .@!~.. {]@  @^.....@/.....   ",
"   .@(@_.:<[@  @}.....@|.....   ",
"   .@123.456@..@7.....@8.....   ",
"   .@_90abc7@..@d.....@@@@@@.   ",
"   .@ef@gh7i@..@j.....@k.....   ",
"   .@/al~m.n@..@o.....@p......  ",
"   .@8.q@r._@..@n>>>,+@/'))),   ",
"    @s.tuv.w@..@@@@@xa@@@@@@y   ",
"    ........................    ",
"     ......................z    ",
"     +....................+A    ",
"      ....................BC    ",
"       ......+...........       ",
"         ...............        ",
"           ...........          ",
"                                ",
"                                ",
"                                ",
"                                "};
