/* XPM */
static char * fopen_xpm[] = {
"32 32 65 1",
" 	c #FFFF00000000",
".	c #FFFF08200820",
"X	c #FFFF0C300820",
"o	c #FFFF14511040",
"O	c #FFFF1C711861",
"+	c #FFFF20812081",
"@	c #FFFF28A228A2",
"#	c #FFFF2CB228A2",
"$	c #FFFF34D330C2",
"%	c #FFFF38E338E3",
"&	c #FFFF41034103",
"*	c #FFFF49244924",
"=	c #FFFF4D344924",
"-	c #FFFF55555144",
";	c #FFFF59655965",
":	c #FFFF61856185",
">	c #FFFF65956185",
",	c #FFFF6DB669A6",
"<	c #FFFF75D671C6",
"1	c #FFFF79E779E7",
"2	c #FFFF82078617",
"3	c #FFFF86178617",
"4	c #FFFF8E388E38",
"5	c #FFFF92489658",
"6	c #FFFF9A699E79",
"7	c #FFFFA289A699",
"8	c #FFFFA699A699",
"9	c #FFFFAEBAAEBA",
"0	c #FFFF10401040",
"q	c #FFFF3CF338E3",
"w	c #FFFFB2CAB6DA",
"e	c #FFFF69A669A6",
"r	c #FFFF96589658",
"t	c #FFFFBAEABEFB",
"y	c #FFFF04100000",
"u	c #FFFF30C230C2",
"i	c #FFFF5D755965",
"p	c #FFFFC30BC71B",
"a	c #FFFF8A288E38",
"s	c #FFFFB6DAB6DA",
"d	c #FFFFC71BC71B",
"f	c #FFFF24922081",
"g	c #FFFF51445144",
"h	c #FFFF7DF779E7",
"j	c #FFFFCF3CCF3C",
"k	c #FFFF18611861",
"l	c #FFFFAAAAAEBA",
"z	c #FFFFD75CD75C",
"x	c #FFFF45144103",
"c	c #FFFF71C671C6",
"v	c #FFFF9E799E79",
"b	c #FFFFDB6CDF7D",
"n	c #000000000000",
"m	c #FFFFCB2BCF3C",
"M	c #FFFFE38DE79D",
"N	c #FFFFFFFF0000",
"B	c #FFFFBEFBBEFB",
"V	c #FFFFE79DE79D",
"C	c #FFFFEBADEFBE",
"Z	c #FFFFEFBEEFBE",
"A	c #FFFFDF7DDF7D",
"S	c #FFFFF7DEF7DE",
"D	c #FFFFFBEEFFFF",
"F	c #FFFFFFFFFFFF",
"G	c #FFFFF3CEF7DE",
"     .XoO+@#$%&*=-;:>,<123456789",
"    .0oO+@#$q&*=-;:>,<123456789w",
"   .0oO+@#$q&*=-;:e,<1234r6789wt",
" y.0oO+@u$q&*=-i:e,<1234r6789wtp",
"y.0oO+@u$q&*=-i:e,<12a4r6789stpd",
".0oOf@u$q&*g-i:e,<h2a4r6789stpdj",
"0kOf@u$q&*g-i:e,<h2a4r67l9stpdjz",
"kOf@u$qx*g-i:ec<h2a4rv7l9stpdjzb",
"Of@u%qnnnnnnnn<h2a4rv7l9stpmjzbM",
"f@u%qxnNNNNNNnh2a5rv7l9sBpmjzbMV",
"#u%qx*nNNNNNNnnnnnnnnnnnpmjzbMCZ",
"u%qx*gnNNNNNNNNNNNNNNNNnmjzAMCZS",
"%qx=g;nNNNNNNNNNNNNNNNNnjzAMCZSD",
"&x=g;inNNNNNNNNNNNNNNNNnzAMCZSFF",
"x=g;i>nNNNNnnnnnnnnnnnnnnnnnSFFF",
"=g;:>,nNNNnNNNNNNNNNNNNNNNNnFFFF",
"g;:>,cnNNNnNNNNNNNNNNNNNNNNnFFFF",
";:>,c1nNNnNNNNNNNNNNNNNNNNnFFFFF",
":>,c12nNNnNNNNNNNNNNNNNNNnFFFFFF",
">,<123nNnNNNNNNNNNNNNNNNNnFFFFFF",
",<1234nNnNNNNNNNNNNNNNNNNnFFFFFF",
"<1234rnnNNNNNNNNNNNNNNNnnFFFFFFF",
"1234r6nnNNNNNNNNNNNNNNNnnFFFFFFF",
"2a4r67nNNNNNNNNNNNNNNNNnFFFFFFFF",
"a4r678nnnnnnnnnnnnnnnnnnFFFFFFFF",
"4r67l9stpdjzbMVZGDFFFFFFFFFFFFFF",
"rv7l9stpdjzbMVZGDFFFFFFFFFFFFFFF",
"v7l9stpmjzbMVZSDFFFFFFFFFFFFFFFF",
"7l9sBpmjzbMVZSDFFFFFFFFFFFFFFFFF",
"l9sBpmjzbMCZSDFFFFFFFFFFFFFFFFFF",
"wsBpmjzAMCZSDFFFFFFFFFFFFFFFFFFF",
"sBpmjzAMCZSDFFFFFFFFFFFFFFFFFFFF"};
