/* XPM */
static char * fundo_xpm[] = {
"32 32 3 1",
" 	c None",
".	c #000000000000",
"X	c #A6999E79C71B",
"                                ",
"                                ",
"                                ",
"                                ",
"                                ",
"                                ",
"                                ",
"                                ",
"                    ...         ",
"                  ...X.         ",
"                ...XXX.         ",
"              ...XXXXX.         ",
"            ...XXXXXXX.         ",
"          ...XXXXXXXXX.         ",
"        ...XXXXXXXXXXX.         ",
"      ...XXXXXXXXXXXXX.         ",
"      ...XXXXXXXXXXXXX.         ",
"        ...XXXXXXXXXXX.         ",
"          ...XXXXXXXXX.         ",
"            ...XXXXXXX.         ",
"              ...XXXXX.         ",
"                ...XXX.         ",
"                  ...X.         ",
"                    ...         ",
"                                ",
"                                ",
"                                ",
"                                ",
"                                ",
"                                ",
"                                ",
"                                "};
