/* XPM */
static char * fc1_xpm[] = {
"32 20 126 2",
"  	c None",
". 	c #020204",
"+ 	c #A68284",
"@ 	c #524A4C",
"# 	c #E2CECC",
"$ 	c #EA4244",
"% 	c #AAA2A4",
"& 	c #E61A1C",
"* 	c #A66E6C",
"= 	c #E2E2E4",
"- 	c #362624",
"; 	c #DA8284",
"> 	c #726664",
", 	c #EE6264",
"' 	c #DEAEAC",
") 	c #DA9694",
"! 	c #E2D2D4",
"~ 	c #EA2E2C",
"{ 	c #3A3634",
"] 	c #DEBEBC",
"^ 	c #BE5E5C",
"/ 	c #FEF2F4",
"( 	c #361214",
"_ 	c #9E4244",
": 	c #F27274",
"< 	c #A69694",
"[ 	c #F29294",
"} 	c #A25254",
"| 	c #EA2624",
"1 	c #A67274",
"2 	c #FAE2E4",
"3 	c #522624",
"4 	c #A26264",
"5 	c #FAD2D4",
"6 	c #F6B2B4",
"7 	c #FAC2C4",
"8 	c #EE4A4C",
"9 	c #F28284",
"0 	c #EE6A6C",
"a 	c #F6A2A4",
"b 	c #EA3A3C",
"c 	c #523234",
"d 	c #EE5254",
"e 	c #4E1A1C",
"f 	c #C29294",
"g 	c #F69A9C",
"h 	c #FEEAEC",
"i 	c #F6BABC",
"j 	c #1A1214",
"k 	c #EA2224",
"l 	c #FEFAFC",
"m 	c #A24A4C",
"n 	c #F27A7C",
"o 	c #6A2E2C",
"p 	c #FADADC",
"q 	c #FACACC",
"r 	c #F28A8C",
"s 	c #F6AAAC",
"t 	c #523A3C",
"u 	c #EE5A5C",
"v 	c #C28E8C",
"w 	c #EE4644",
"x 	c #EA1E1C",
"y 	c #BE6264",
"z 	c #727274",
"A 	c #EA3634",
"B 	c #361E1C",
"C 	c #AA9E9C",
"D 	c #F69694",
"E 	c #A25A5C",
"F 	c #BE7E7C",
"G 	c #FEE6E4",
"H 	c #522E2C",
"I 	c #A26A6C",
"J 	c #F26E6C",
"K 	c #FABEBC",
"L 	c #1A0A0C",
"M 	c #A68E8C",
"N 	c #6E5A5C",
"O 	c #EE4244",
"P 	c #C6BEBC",
"Q 	c #EA1A1C",
"R 	c #4E2224",
"S 	c #EE6664",
"T 	c #DA9A9C",
"U 	c #E2DADC",
"V 	c #EA3234",
"W 	c #FEF6F4",
"X 	c #361614",
"Y 	c #9E4644",
"Z 	c #F27674",
"` 	c #AA9A9C",
" .	c #F69294",
"..	c #A25654",
"+.	c #EA2A2C",
"@.	c #A67674",
"#.	c #FEE2E4",
"$.	c #522A2C",
"%.	c #A26664",
"&.	c #FAD6D4",
"*.	c #F6B6B4",
"=.	c #FAC6C4",
"-.	c #EE4E4C",
";.	c #F28684",
">.	c #F26A6C",
",.	c #F6A6A4",
"'.	c #EA3E3C",
").	c #523634",
"!.	c #EE5654",
"~.	c #4E1E1C",
"{.	c #C29E9C",
"].	c #F69E9C",
"^.	c #FEEEEC",
"/.	c #FABABC",
"(.	c #1E1A1C",
"_.	c #FEFEFC",
":.	c #A24E4C",
"<.	c #F27E7C",
"[.	c #FADEDC",
"}.	c #FACECC",
"|.	c #F28E8C",
"1.	c #F6AEAC",
"2.	c #523E3C",
"3.	c #EE5E5C",
"4.	c #BE6E6C",
"5.	c #8A7674",
"& & & & k +.V b $ 8 d u , 0 : n 9 r  .g a s 6 /.7 q 5 p #.h / l ",
"Q Q Q x | ~ A '.w -.!.3.S J Z <.;.|.D ].,.1.*.K =.}.&.[.G ^.W _.",
"& & & k +.V b $ 8 d u , 0 : n 9 r [ g a s 6 i 7 q 5 p 2 h / l _.",
"& & x | ~ A '.w -.!.3.S J Z <.;.|.D ].,.1.*.K =.}.&.[.G ^.W _._.",
"& x | ~ A '.w -.!.3.S J Z <.;.|.D ].,.1.*.K =.q 5 p 2 h / l _._.",
"& x | ~ A '.w -.!.3.S J Z <.;.|.D ].,.1.*.K =.5 p 2 h / l _._._.",
"x | ~ A '.w e . . . . . } ... . . . - v i ' N . . . ! / _._._._.",
"x | ~ A '.w e . ( R R 3 y E . j c . . t 7 . . @ @ (.C l _._._._.",
"| ~ A '.w -.( . _ J Z <.;.H . ).a . . 2.+ . . p 2 ^./ _._._._._.",
"+.V b $ 8 -.. . o m ^ 9 r H . I ) . . K {.. . > # ^.l _._._._._.",
"+.V b $ -.d . . . . 3 ;.4.L . . . . f 7 q ] . . . P _._._._._._.",
"V b $ 8 d ~.. . : n 9 r 4 . - * @.i 7 q 5 &.[.{ . . _._._._._._.",
"A '.w -.!.~.. m Z <.;.|.4 . t 1.*.K =.}.5.[.G (.. z _._._._._._.",
"b $ 8 d u L . . . . B ; ).. ).6 i 7 q M . . . . . = _._._._._._.",
"$ 8 -.u 3._ m :.} E 4.D F * T *.7 =.}.] < < C U _._._._._._._._.",
"$ 8 !.u S 0 : n ;.r D g a s 6 i 7 q 5 p 2 ^./ l _._._._._._._._.",
"w -.!.3.0 J Z <.;.|.D ].s 1.*.K q }.p [.G ^.W _._._._._._._._._.",
"-.!.3., 0 Z <.9 |.[ ].,.s *.K =.q &.p G h W _._._._._._._._._._.",
"-.!., 0 J Z 9 ;.[ D ].s 1.*.K q }.p [.h ^.W _._._._._._._._._._.",
"!.3.S 0 Z <.;.|.[ ].,.s *.K =.q &.p G h W _._._._._._._._._._._."};
